<svg width="10" height="10" viewBox="0 0 10 10" fill="none" xmlns="http://www.w3.org/2000/svg">
<path d="M3.78125 4.17969H9.40625C9.45781 4.17969 9.5 4.1375 9.5 4.08594V3.42969C9.5 3.37812 9.45781 3.33594 9.40625 3.33594H3.78125C3.72969 3.33594 3.6875 3.37812 3.6875 3.42969V4.08594C3.6875 4.1375 3.72969 4.17969 3.78125 4.17969ZM3.6875 6.57031C3.6875 6.62188 3.72969 6.66406 3.78125 6.66406H9.40625C9.45781 6.66406 9.5 6.62188 9.5 6.57031V5.91406C9.5 5.8625 9.45781 5.82031 9.40625 5.82031H3.78125C3.72969 5.82031 3.6875 5.8625 3.6875 5.91406V6.57031ZM9.59375 0.875H0.40625C0.354687 0.875 0.3125 0.917187 0.3125 0.96875V1.625C0.3125 1.67656 0.354687 1.71875 0.40625 1.71875H9.59375C9.64531 1.71875 9.6875 1.67656 9.6875 1.625V0.96875C9.6875 0.917187 9.64531 0.875 9.59375 0.875ZM9.59375 8.28125H0.40625C0.354687 8.28125 0.3125 8.32344 0.3125 8.375V9.03125C0.3125 9.08281 0.354687 9.125 0.40625 9.125H9.59375C9.64531 9.125 9.6875 9.08281 9.6875 9.03125V8.375C9.6875 8.32344 9.64531 8.28125 9.59375 8.28125ZM0.352344 5.08086L2.18398 6.52344C2.25195 6.57734 2.35273 6.5293 2.35273 6.44258V3.55742C2.35273 3.4707 2.25313 3.42266 2.18398 3.47656L0.352344 4.91914C0.340028 4.92872 0.330062 4.94098 0.323206 4.95499C0.316351 4.96901 0.312787 4.9844 0.312787 5C0.312787 5.0156 0.316351 5.03099 0.323206 5.04501C0.330062 5.05902 0.340028 5.07128 0.352344 5.08086V5.08086Z" fill="black"/>
</svg>
