<svg width="12" height="12" viewBox="0 0 12 12" fill="none" xmlns="http://www.w3.org/2000/svg">
<path d="M10.0309 9.34886C10.5694 8.7009 10.944 7.93277 11.1229 7.10943C11.3018 6.2861 11.2797 5.43179 11.0586 4.61877C10.8375 3.80575 10.4239 3.05795 9.85262 2.43862C9.28138 1.81929 8.56938 1.34665 7.77685 1.06068C6.98432 0.774719 6.13457 0.683844 5.29949 0.795744C4.4644 0.907644 3.66856 1.21903 2.97927 1.70355C2.28998 2.18808 1.72753 2.83149 1.3395 3.57937C0.951464 4.32724 0.749264 5.15757 0.750002 6.00011C0.750285 7.22493 1.18191 8.41053 1.96913 9.34886L1.96163 9.35524C1.98788 9.38674 2.01788 9.41374 2.04488 9.44486C2.07863 9.48349 2.115 9.51986 2.14988 9.55736C2.25488 9.67136 2.36288 9.78086 2.47613 9.88361C2.51063 9.91511 2.54625 9.94436 2.58113 9.97436C2.70113 10.0779 2.8245 10.1761 2.95238 10.2676C2.96888 10.2789 2.98388 10.2935 3.00038 10.3051V10.3006C3.87867 10.9187 4.92642 11.2504 6.00038 11.2504C7.07434 11.2504 8.12209 10.9187 9.00038 10.3006V10.3051C9.01688 10.2935 9.0315 10.2789 9.04838 10.2676C9.17588 10.1757 9.29963 10.0779 9.41963 9.97436C9.4545 9.94436 9.49013 9.91474 9.52463 9.88361C9.63788 9.78049 9.74588 9.67136 9.85088 9.55736C9.88575 9.51986 9.92175 9.48349 9.95588 9.44486C9.9825 9.41374 10.0129 9.38674 10.0391 9.35486L10.0309 9.34886ZM6 3.00011C6.33376 3.00011 6.66002 3.09908 6.93753 3.28451C7.21504 3.46993 7.43133 3.73349 7.55905 4.04184C7.68677 4.35019 7.72019 4.68949 7.65508 5.01683C7.58996 5.34417 7.42925 5.64486 7.19324 5.88086C6.95724 6.11686 6.65656 6.27758 6.32922 6.34269C6.00187 6.4078 5.66257 6.37438 5.35422 6.24666C5.04587 6.11894 4.78232 5.90265 4.5969 5.62514C4.41147 5.34763 4.3125 5.02137 4.3125 4.68761C4.3125 4.24006 4.49029 3.81084 4.80676 3.49437C5.12323 3.1779 5.55245 3.00011 6 3.00011V3.00011ZM3.00263 9.34886C3.00913 8.85648 3.20923 8.38645 3.55964 8.04047C3.91004 7.69448 4.38257 7.50037 4.875 7.50011H7.125C7.61743 7.50037 8.08996 7.69448 8.44037 8.04047C8.79077 8.38645 8.99087 8.85648 8.99738 9.34886C8.17494 10.09 7.1071 10.5001 6 10.5001C4.8929 10.5001 3.82506 10.09 3.00263 9.34886V9.34886Z" fill="#818b90"/>
</svg>
