<svg width="335" height="332" viewBox="0 0 335 332" fill="none" xmlns="http://www.w3.org/2000/svg">
<path fill-rule="evenodd" clip-rule="evenodd" d="M178.452 0.487975C140.467 3.68822 104.978 17.5929 74.1376 41.3587C65.9259 47.6863 47.8916 65.7295 41.3868 74.1248C8.2967 116.833 -5.58975 169.078 2.04404 222.144C6.96644 256.364 20.6175 287.685 42.9008 315.889C48.477 322.946 65.525 339.979 72.5074 345.468C96.2234 364.113 122.493 376.762 151.204 383.361C177.469 389.398 209.271 389.552 235.399 383.77C264.329 377.369 292.139 364.107 315.588 345.533C323.037 339.633 339.966 322.725 345.648 315.51C367.801 287.383 381.84 254.396 386.677 219.107C388.441 206.245 388.441 181.871 386.677 169.01C375.463 87.2051 315.647 22.0714 235.484 4.37746C219.05 0.749855 194.894 -0.897331 178.452 0.487975ZM218.521 74.8231C276.983 87.4328 317.234 139.126 314.568 198.177C314.303 204.053 313.424 212.157 312.616 216.186C306.03 249.003 285.577 278.546 257.503 295.793C224.151 316.282 182.421 319.459 147.024 304.202L140.3 301.304L110.446 308.389C94.0261 312.285 79.6522 315.482 78.5034 315.492C76.4928 315.509 73.3783 313.239 73.3783 311.755C73.3783 311.36 76.3129 296.805 79.8997 279.411L86.4212 247.786L83.7736 241.986C72.95 218.278 70.5287 189.281 77.2043 163.316C88.7195 118.53 124.926 83.929 169.694 74.9264C180.383 72.7767 180.995 72.7327 196.761 72.9983C207.812 73.1843 212.903 73.6117 218.521 74.8231ZM178.712 100.322C140.189 106.797 109.824 136.23 101.85 174.827C97.7162 194.834 100.653 215.467 110.637 236.566L114.409 244.536L110.645 262.738C108.575 272.75 107.018 281.077 107.185 281.244C107.352 281.411 115.66 279.6 125.649 277.221L143.807 272.895L150.774 276.392C165.279 283.675 178.05 286.665 194.653 286.665C220.886 286.665 243.748 276.813 262.269 257.526C275.01 244.259 282.984 228.553 286.837 209.131C288.294 201.789 288.06 182.85 286.416 175.112C278.033 135.649 248.015 106.629 209.04 100.31C200.677 98.9533 186.819 98.9594 178.712 100.322ZM159.778 136.732C162.799 139.273 173.031 162.093 172.977 166.168C172.947 168.405 172.01 170.292 168.643 174.898C164.822 180.124 164.388 181.088 164.725 183.608C165.238 187.451 168.868 192.167 178.655 201.703C187.471 210.293 197.379 218.049 203.497 221.149C209.016 223.944 211.268 223.326 217.712 217.249C222.485 212.747 223.287 212.276 226.18 212.276C230.342 212.276 253.648 218.924 256.017 220.787C257.023 221.578 258.21 223.577 258.656 225.229C259.332 227.742 259.225 228.761 258.001 231.452C254.189 239.828 243.432 249.295 235.89 250.912C229.872 252.202 219.536 251.918 212.706 250.277C195.954 246.248 179.593 235.961 161.583 218.135C147.914 204.605 140.147 193.343 135.842 180.815C134.004 175.465 133.741 173.564 133.741 165.593C133.741 157.188 133.903 156.155 135.833 152.224C138.106 147.598 145.992 138.497 149.671 136.254C152.96 134.249 157.057 134.443 159.778 136.732Z" fill="#BAE3B5"/>
</svg>
