<svg width="10" height="12" viewBox="0 0 10 12" fill="none" xmlns="http://www.w3.org/2000/svg">
<path d="M9.01484 3.3832C9.08516 3.45352 9.125 3.54844 9.125 3.64805V10.875C9.125 11.0824 8.95742 11.25 8.75 11.25H1.25C1.04258 11.25 0.875 11.0824 0.875 10.875V1.125C0.875 0.917578 1.04258 0.75 1.25 0.75H6.22695C6.32656 0.75 6.42266 0.789844 6.49297 0.860156L9.01484 3.3832V3.3832ZM8.26016 3.82031L6.05469 1.61484V3.82031H8.26016ZM5.74227 5.59969L5.02484 6.79852L4.30039 5.59922C4.28786 5.57851 4.27021 5.56138 4.24912 5.54949C4.22804 5.53761 4.20424 5.53136 4.18004 5.53137H3.72957C3.70303 5.53137 3.67702 5.53889 3.65457 5.55305C3.63894 5.5629 3.62539 5.57573 3.61472 5.59082C3.60405 5.60591 3.59646 5.62295 3.59238 5.64097C3.5883 5.65899 3.58781 5.67764 3.59094 5.69586C3.59407 5.71407 3.60076 5.73148 3.61063 5.74711L4.57555 7.27547L3.59762 8.83148C3.58352 8.85392 3.57604 8.87987 3.57605 8.90637C3.57605 8.94366 3.59087 8.97943 3.61724 9.0058C3.64362 9.03218 3.67938 9.04699 3.71668 9.04699H4.12051C4.14449 9.04699 4.16808 9.04085 4.18902 9.02915C4.20996 9.01746 4.22756 9.00061 4.24016 8.9802L4.97492 7.79109L5.705 8.97996C5.71758 9.00045 5.73521 9.01737 5.7562 9.02911C5.77719 9.04084 5.80084 9.047 5.82488 9.04699H6.2641C6.29102 9.04699 6.31738 9.03926 6.34004 9.02473C6.35558 9.01475 6.36901 9.00182 6.37955 8.98666C6.3901 8.9715 6.39755 8.95441 6.40149 8.93636C6.40543 8.91832 6.40578 8.89968 6.40251 8.8815C6.39925 8.86333 6.39243 8.84597 6.38246 8.83043L5.40008 7.30055L6.39969 5.74816C6.41427 5.72544 6.422 5.69899 6.42195 5.67199C6.42195 5.6347 6.40714 5.59893 6.38076 5.57256C6.35439 5.54618 6.31862 5.53137 6.28133 5.53137H5.86297C5.83867 5.53138 5.81479 5.5377 5.79365 5.54969C5.77252 5.56169 5.75486 5.57895 5.74238 5.5998L5.74227 5.59969Z" fill="#026C38"/>
</svg>
