<svg width="10" height="10" viewBox="0 0 10 10" fill="none" xmlns="http://www.w3.org/2000/svg">
<path d="M3.78125 4.17969H9.40625C9.45781 4.17969 9.5 4.1375 9.5 4.08594V3.42969C9.5 3.37812 9.45781 3.33594 9.40625 3.33594H3.78125C3.72969 3.33594 3.6875 3.37812 3.6875 3.42969V4.08594C3.6875 4.1375 3.72969 4.17969 3.78125 4.17969ZM3.6875 6.57031C3.6875 6.62188 3.72969 6.66406 3.78125 6.66406H9.40625C9.45781 6.66406 9.5 6.62188 9.5 6.57031V5.91406C9.5 5.8625 9.45781 5.82031 9.40625 5.82031H3.78125C3.72969 5.82031 3.6875 5.8625 3.6875 5.91406V6.57031ZM9.59375 0.875H0.40625C0.354687 0.875 0.3125 0.917187 0.3125 0.96875V1.625C0.3125 1.67656 0.354687 1.71875 0.40625 1.71875H9.59375C9.64531 1.71875 9.6875 1.67656 9.6875 1.625V0.96875C9.6875 0.917187 9.64531 0.875 9.59375 0.875ZM9.59375 8.28125H0.40625C0.354687 8.28125 0.3125 8.32344 0.3125 8.375V9.03125C0.3125 9.08281 0.354687 9.125 0.40625 9.125H9.59375C9.64531 9.125 9.6875 9.08281 9.6875 9.03125V8.375C9.6875 8.32344 9.64531 8.28125 9.59375 8.28125ZM0.66875 6.52461L2.50039 5.08203C2.51272 5.07234 2.52269 5.05997 2.52955 5.04586C2.5364 5.03175 2.53997 5.01627 2.53997 5.00059C2.53997 4.9849 2.5364 4.96942 2.52955 4.95531C2.52269 4.9412 2.51272 4.92883 2.50039 4.91914L0.66875 3.47539C0.600781 3.42148 0.5 3.46953 0.5 3.55625V6.44258C0.499994 6.46215 0.505495 6.48133 0.515875 6.49792C0.526256 6.51452 0.541096 6.52786 0.558699 6.53641C0.576302 6.54497 0.595958 6.5484 0.615419 6.54631C0.634881 6.54423 0.653362 6.5367 0.66875 6.52461V6.52461Z" fill="black"/>
</svg>
