<svg width="10" height="12" viewBox="0 0 10 12" fill="none" xmlns="http://www.w3.org/2000/svg">
<path d="M9.01484 3.3832C9.08516 3.45352 9.125 3.54844 9.125 3.64805V10.875C9.125 11.0824 8.95742 11.25 8.75 11.25H1.25C1.04258 11.25 0.875 11.0824 0.875 10.875V1.125C0.875 0.917578 1.04258 0.75 1.25 0.75H6.22695C6.32656 0.75 6.42266 0.789844 6.49297 0.860156L9.01484 3.3832V3.3832ZM8.26016 3.82031L6.05469 1.61484V3.82031H8.26016ZM6.42055 7.46789C6.24266 7.46203 6.05352 7.47574 5.83871 7.50258C5.55395 7.32691 5.36223 7.08563 5.22605 6.73113L5.23859 6.6798L5.25312 6.6191C5.30352 6.40664 5.33059 6.2516 5.33867 6.09527C5.34477 5.97727 5.3382 5.8684 5.31723 5.7675C5.27855 5.54965 5.12445 5.42227 4.93027 5.41441C4.74922 5.40703 4.58281 5.50816 4.54027 5.66484C4.47102 5.9182 4.51156 6.2516 4.6584 6.8202C4.47137 7.26609 4.22422 7.78887 4.0584 8.08043C3.83703 8.19457 3.66465 8.2984 3.5198 8.41348C3.32879 8.56547 3.20949 8.72168 3.17668 8.88574C3.16074 8.9618 3.18477 9.06117 3.23949 9.14262C3.3016 9.23496 3.39512 9.29496 3.50727 9.30363C3.79027 9.32555 4.13809 9.03375 4.52211 8.3748C4.56066 8.36191 4.60145 8.34832 4.65125 8.33145L4.7907 8.28434C4.87895 8.25457 4.94293 8.23324 5.00621 8.21273C5.28043 8.12344 5.48785 8.06707 5.67652 8.03496C6.00441 8.21051 6.3834 8.32559 6.63863 8.32559C6.84934 8.32559 6.99172 8.21637 7.04316 8.04445C7.08828 7.89352 7.05254 7.71844 6.95551 7.62164C6.8552 7.52309 6.67074 7.47598 6.42055 7.46789V7.46789ZM3.51441 8.97281V8.96859L3.51594 8.96461C3.53308 8.92028 3.55509 8.87799 3.58156 8.83852C3.63172 8.76141 3.70074 8.68031 3.78629 8.59395C3.83223 8.54766 3.88004 8.50254 3.93617 8.45191C3.94871 8.44066 4.02887 8.3693 4.04387 8.35523L4.17477 8.23336L4.07961 8.38488C3.93523 8.61504 3.80469 8.78074 3.69289 8.88879C3.65176 8.92863 3.61555 8.95793 3.58625 8.9768C3.57658 8.98326 3.56634 8.98883 3.55566 8.99344C3.55086 8.99543 3.54664 8.9966 3.54242 8.99695C3.53797 8.99752 3.53344 8.99691 3.5293 8.9952C3.52489 8.99335 3.52112 8.99024 3.51847 8.98625C3.51582 8.98227 3.51441 8.97759 3.51441 8.97281V8.97281ZM4.99027 6.41484L4.96379 6.46172L4.94738 6.41039C4.91105 6.2952 4.88434 6.12164 4.87695 5.96508C4.86852 5.78695 4.8827 5.68008 4.93895 5.68008C5.01793 5.68008 5.05414 5.80664 5.05695 5.99707C5.05953 6.16441 5.03316 6.33855 4.99016 6.41484H4.99027ZM4.92219 7.09992L4.94012 7.05246L4.96461 7.09699C5.1016 7.3459 5.27938 7.55355 5.47484 7.69828L5.51703 7.72945L5.46559 7.74C5.27422 7.77961 5.09598 7.83914 4.85223 7.93746C4.87766 7.92715 4.59887 8.04129 4.52832 8.06836L4.4668 8.09191L4.49961 8.03473C4.64434 7.78277 4.77805 7.4802 4.92207 7.09992H4.92219ZM6.7693 7.99359C6.67719 8.02992 6.47891 7.99746 6.1298 7.8484L6.04121 7.81066L6.1373 7.80363C6.41035 7.78336 6.60371 7.79836 6.71644 7.83961C6.76449 7.85719 6.79648 7.87934 6.81066 7.90465C6.81813 7.91663 6.82064 7.93105 6.81766 7.94485C6.81469 7.95865 6.80646 7.97075 6.79473 7.97859C6.78728 7.98516 6.77865 7.99025 6.7693 7.99359V7.99359Z" fill="#C10606"/>
</svg>
