<svg width="10" height="12" viewBox="0 0 10 12" fill="none" xmlns="http://www.w3.org/2000/svg">
<path d="M9.01484 3.3832C9.08516 3.45352 9.125 3.54844 9.125 3.64805V10.875C9.125 11.0824 8.95742 11.25 8.75 11.25H1.25C1.04258 11.25 0.875 11.0824 0.875 10.875V1.125C0.875 0.917578 1.04258 0.75 1.25 0.75H6.22695C6.32656 0.75 6.42266 0.789844 6.49297 0.860156L9.01484 3.3832V3.3832ZM8.26016 3.82031L6.05469 1.61484V3.82031H8.26016ZM2.46875 1.59375V2.34375H3.21875V1.59375H2.46875ZM3.21875 2.34375V3.09375H3.96875V2.34375H3.21875ZM2.46875 3.09375V3.84375H3.21875V3.09375H2.46875ZM3.21875 3.84375V4.59375H3.96875V3.84375H3.21875ZM2.46875 4.59375V5.34375H3.21875V4.59375H2.46875ZM3.21875 5.34375V6.09375H3.96875V5.34375H3.21875ZM2.46875 6.09375V6.84375H3.21875V6.09375H2.46875ZM2.46875 6.84375V8.71875H3.96875V6.84375H2.46875ZM3.03125 7.40625H3.40625V8.15625H3.03125V7.40625Z" fill="#61099A"/>
</svg>
