<svg width="8" height="10" viewBox="0 0 8 10" fill="none" xmlns="http://www.w3.org/2000/svg">
<path d="M5 0H1C0.734784 0 0.48043 0.105357 0.292893 0.292893C0.105357 0.48043 0 0.734784 0 1V9C0 9.26522 0.105357 9.51957 0.292893 9.70711C0.48043 9.89464 0.734784 10 1 10H7C7.26522 10 7.51957 9.89464 7.70711 9.70711C7.89464 9.51957 8 9.26522 8 9V3L5 0ZM2.999 6.384H2.4475V8.021H1.989V6.384H1.4465V6H2.999V6.384ZM4.3615 8.021L4.179 7.6555C4.104 7.5145 4.056 7.4095 3.9995 7.2925H3.993C3.9515 7.409 3.9005 7.514 3.837 7.6555L3.6695 8.021H3.147L3.7325 6.9985L3.168 6H3.693L3.87 6.369C3.9305 6.4915 3.975 6.5905 4.023 6.7045H4.0295C4.0775 6.5755 4.1165 6.4855 4.1675 6.369L4.338 6H4.8595L4.29 6.9865L4.889 8.021H4.3615ZM6.5535 6.384H6.0015V8.021H5.543V6.384H5.0005V6H6.553V6.384H6.5535ZM5 3.5H4.5V1L7 3.5H5Z" fill="#30609C"/>
</svg>
